PathFileType	4	(X/Y/Z)	C:\Users\WrightLab\Desktop\Jo\P4V136.trc
DataRate	CameraRate	NumFrames	NumMarkers	Units	OrigDataRate	OrigDataStartFrame	OrigNumFrames
100.00	100.00	       18	19	mm	100.00	212	       565
Frame#	Time	Headset_Front			Headset_Back			Headset_Left			Headset_Right			Left_Shoulder			Right_Shoulder			Sternum			C7			Left Elbow			Right Elbow			Left Wrist			Right Wrist			Left ASIS			Right ASIS			S2			Left Knee			Right Knee			Left Ankle			Right Ankle			
		X1	Y1	Z1	X2	Y2	Z2	X3	Y3	Z3	X4	Y4	Z4	X5	Y5	Z5	X6	Y6	Z6	X7	Y7	Z7	X8	Y8	Z8	X9	Y9	Z9	X10	Y10	Z10	X11	Y11	Z11	X12	Y12	Z12	X13	Y13	Z13	X14	Y14	Z14	X15	Y15	Z15	X16	Y16	Z16	X17	Y17	Z17	X18	Y18	Z18	X19	Y19	Z19	

212	2.110	-502.67844	1712.78186	236.23265	-364.17108	1687.96228	291.18820							-323.36865	1504.70752	49.11217	-602.77911	1515.69812	163.62253	-409.64484	1453.50916	206.41673	-488.11118	1539.64880	54.03294	-189.20259	1156.72302	47.87517	-742.08826	1172.98474	231.81807	-180.84534	895.47711	219.86000	-712.27081	894.39984	358.22910	-307.30472	989.26654	112.25671	-585.20612	1044.46362	292.47885	-525.08929	1039.09460	30.22529	-329.06345	507.76755	144.09370	-588.39056	569.09601	360.63937	-604.10406	275.38342	-192.43889	-602.79596	56.48490	297.26068	
213	2.120	-499.46973	1714.66235	246.50360	-359.97092	1689.52319	300.38062							-320.53818	1507.30164	56.16885	-598.62573	1517.50208	175.07614	-405.34097	1455.82800	215.41899	-485.26767	1541.70764	62.94038	-186.75389	1158.01697	50.53214	-736.65302	1175.25574	248.04659	-175.78450	897.26166	223.03564	-703.79871	897.99487	375.71866	-304.09390	991.34058	119.80876	-579.75464	1045.18958	301.77933	-522.25067	1041.17310	39.53603	-319.30817	511.93665	161.64717	-586.52570	568.96545	367.05630	-599.49158	278.98865	-170.72308	-602.31677	57.27877	297.62549	
214	2.130	-494.60419	1716.24915	255.89203	-355.50677	1690.90686	309.52667							-317.84613	1509.07910	63.83746	-594.46472	1519.48401	186.29965	-400.55457	1457.45056	223.89177	-482.39426	1543.69666	72.78487	-183.71393	1160.31482	52.95865	-731.14063	1177.71204	263.45950	-170.15977	899.34039	225.88766	-694.51636	900.62457	391.47775	-300.90112	994.31244	125.68301	-575.37006	1046.63367	311.31201	-519.75690	1042.54919	48.91949	-307.49185	517.57391	179.73317	-584.18439	569.44971	372.29385	-593.56689	282.45157	-148.12692	-601.70947	57.36694	297.49203	
215	2.140	-489.73987	1717.88098	265.24301	-350.18213	1692.28357	318.04297							-315.25049	1510.77002	71.03425	-589.67908	1521.43762	197.35130	-395.69266	1459.40442	232.32610	-479.20767	1545.69495	83.45567	-180.74937	1161.17871	54.32318	-724.85095	1179.84607	278.86020	-163.73178	902.76465	229.62180	-685.62140	904.85339	409.07401	-298.14261	997.05396	131.49074	-570.15350	1047.29749	320.87717	-517.19385	1044.83911	56.69629	-296.94049	522.82593	197.27162	-580.43213	569.10870	376.09235	-586.99139	283.46283	-124.98716	-601.51099	57.51624	297.56082	
216	2.150	-484.90344	1719.45154	274.61630	-345.69498	1693.90015	327.14706							-312.49026	1513.11414	77.02319	-584.89081	1523.57422	208.68597	-390.69678	1460.59521	240.58223	-475.94659	1547.56494	92.84836	-178.28032	1162.66174	56.89817	-719.08014	1182.38489	293.83624	-158.70705	904.99176	233.91304	-675.80188	908.09314	424.85883	-295.04709	1000.10303	137.31453	-565.10522	1048.30505	330.49057	-515.02386	1046.25525	65.21367	-285.01895	528.53180	213.85616	-576.38922	567.51788	379.37967	-578.16797	282.71048	-101.91429	-601.14264	57.90661	297.68286	
217	2.160	-480.52878	1721.29736	284.15085	-341.27194	1695.45300	336.05063							-309.25162	1514.55298	84.58760	-580.12268	1525.35559	219.53835	-385.12885	1462.08459	248.42619	-472.83276	1549.49658	102.59680	-176.43643	1164.05151	59.03159	-712.76062	1184.70996	309.13281	-152.69124	907.48297	234.55167	-665.90009	912.79724	441.16656	-291.69711	1001.86493	142.83531	-560.05402	1048.91003	339.63385	-512.74402	1047.53040	74.43575	-274.21790	534.79730	230.56789	-572.83551	566.77130	382.55701	-570.06293	281.78625	-77.89206	-600.55573	58.26764	297.78989	
218	2.170	-475.31454	1722.48608	293.28207	-335.69586	1696.54041	344.40100							-306.53555	1516.48840	91.74080	-574.93774	1527.29126	230.54669	-380.42438	1463.68408	256.86060	-469.57260	1551.14795	112.20714	-174.71675	1165.84131	61.56161	-706.58533	1187.08167	323.93033	-147.21942	910.46332	237.49844	-655.94421	916.34650	457.59647	-289.11917	1004.81451	147.14531	-555.32092	1047.58130	348.87146	-510.29742	1048.94128	82.68546	-262.26965	541.12738	246.72736	-569.54388	565.98987	386.79550	-561.18750	278.48764	-54.41959	-600.22131	58.49829	297.77219	
219	2.180	-470.63672	1723.81287	302.43555	-331.00177	1698.01697	353.36719							-303.96201	1517.90527	97.35191	-569.98895	1529.09204	241.77560	-375.30887	1464.83984	264.81616	-466.27948	1552.90100	122.00700	-173.02025	1167.11108	63.43324	-700.00177	1189.74207	338.43851	-141.30103	912.88757	240.19469	-645.93866	918.67334	472.98294	-285.15271	1008.23358	155.21509	-549.87524	1049.66113	358.83139	-507.85571	1050.07385	91.31564	-250.02119	548.27930	262.04715	-566.14087	565.39423	390.73648	-551.74524	275.11618	-30.84241	-599.79413	58.70839	297.58859	
220	2.190	-465.94772	1725.13708	311.70673	-325.39871	1698.69116	361.71689							-300.96429	1519.06104	104.61481	-564.48755	1530.83191	252.54047	-369.06537	1465.69031	272.25754	-462.78055	1554.36768	131.50218	-172.37917	1168.24451	65.20474	-693.81818	1191.84778	353.42194	-135.52621	914.80676	242.31369	-635.92206	922.58582	489.30121	-281.71521	1010.50372	161.62517	-543.42334	1050.02795	369.67438	-505.45004	1050.63879	99.35043	-238.51244	554.54333	277.44934	-563.41455	565.01233	395.45590	-541.33234	269.65857	-6.13792	-599.22345	59.23115	297.77908	
221	2.200	-460.89853	1725.99280	320.77365	-319.66809	1699.93030	370.13156							-297.51712	1520.22375	112.13071	-559.20068	1532.23718	263.56866	-364.17151	1466.59216	280.41727	-459.18945	1555.54175	140.78049	-169.73259	1169.93335	67.68999	-687.08032	1193.88708	367.94531	-131.05127	916.59222	243.99179	-626.07526	926.90411	504.83325	-278.45157	1012.74908	168.65570	-539.28339	1048.51392	375.39096	-502.72632	1050.86389	108.08297	-226.72406	561.04584	291.90771	-559.18646	563.51984	399.93774	-529.93933	263.55035	17.59360	-598.54102	57.91166	297.12323	
222	2.210	-455.69568	1726.73132	329.74066	-314.81293	1700.68811	378.80984							-294.64294	1521.53369	119.34262	-553.22137	1533.31116	274.39026	-358.35046	1467.10742	287.92188	-455.42020	1556.70117	150.00044	-168.75357	1170.87585	69.47362	-680.58875	1195.83533	382.45505	-124.84279	918.48492	246.02423	-615.26184	930.18610	520.79156	-274.76453	1015.19458	174.41417	-533.35535	1048.29968	383.40945	-499.78568	1051.23889	117.23384	-214.96111	567.57275	304.19373	-556.00616	563.01550	404.05344	-518.64941	257.02682	42.77224	-598.08826	59.41783	298.04553	
223	2.220	-450.69968	1727.49902	338.73645	-309.06509	1701.40161	387.03302							-290.96893	1521.78577	125.86267	-547.82489	1534.35034	285.42789	-352.14450	1467.69275	295.27847	-451.67639	1557.59070	159.18227	-168.34915	1170.99194	71.83810	-673.66180	1197.72266	396.56088	-119.07971	920.07916	248.60513	-604.53302	933.34216	536.61200	-271.29559	1017.81464	180.18832	-528.27661	1048.07581	392.14368	-496.84933	1051.73291	124.70066	-203.18730	575.03302	316.23303	-552.51410	562.14142	408.54303	-505.04306	249.38803	67.43237	-597.72467	59.62389	298.11328	
224	2.230	-444.87701	1727.86609	347.41467	-303.90088	1701.73840	395.65738							-287.73187	1522.86584	132.79697	-541.59729	1535.44177	296.01831	-346.38043	1468.17810	302.77579	-447.72055	1558.49902	168.38039	-166.69942	1172.35400	73.68879	-666.97437	1199.35449	411.18173	-113.39468	921.59314	250.41063	-593.92700	936.88306	551.92871	-267.39578	1019.88263	186.43689	-522.88684	1049.17322	402.83646	-493.61450	1052.32605	132.36554	-192.55179	581.45868	327.96478	-549.65887	561.68829	413.31134	-489.93146	241.39578	91.86389	-597.50787	59.93128	298.08514	
225	2.240	-439.83722	1728.41748	356.42395	-298.14005	1701.89185	403.73212							-284.11496	1522.80383	140.12009	-535.33075	1536.15137	306.37241	-340.75714	1468.54150	310.32883	-443.36804	1558.98608	177.12657	-165.41002	1172.02917	75.95429	-659.90363	1200.84814	425.14679	-108.34431	922.37585	251.72174	-583.16553	940.15533	567.06683	-263.50809	1021.90399	192.64839	-517.83618	1047.73389	409.15048	-490.29489	1052.20044	141.13689	-181.59010	587.63049	339.04031	-546.50037	561.05920	417.81299	-473.73358	232.75972	115.80767	-597.20630	60.27538	297.88809	
226	2.250	-433.94394	1728.29443	365.05237	-292.31802	1701.97900	412.18060							-280.83682	1523.31555	145.29836	-529.07617	1536.51685	316.83496	-334.95486	1468.60010	317.89029	-439.17117	1559.66357	186.35886	-163.68373	1171.86890	79.03889	-652.74799	1202.35303	439.21634	-103.27270	923.13062	254.16136	-571.60645	942.91071	583.07532	-259.84488	1024.04956	199.23604	-511.96283	1047.29749	419.12131	-487.07874	1051.41345	150.09535	-170.86311	593.67590	348.64258	-543.29694	559.99658	421.51410	-456.14505	223.21928	139.78789	-596.63232	60.72952	297.76935	
227	2.260	-428.55667	1727.98267	373.90280	-286.24570	1702.17041	420.04062							-276.96606	1523.46191	153.49571	-523.05969	1536.88440	327.27899	-329.14484	1468.28137	325.27628	-434.87418	1559.73083	195.42441	-162.35840	1171.44250	81.24235	-645.34381	1203.75537	453.03259	-97.75195	923.31177	255.89732	-561.05994	947.04236	597.73505	-255.49258	1025.23230	208.00694	-507.48706	1046.44446	427.65826				-160.44153	598.43915	357.83783	-540.34558	559.54102	425.35645	-436.82620	213.18321	163.99597	-596.31189	61.23093	297.70056	
228	2.270	-422.58685	1727.74060	382.41605	-280.50711	1701.75500	428.46240							-273.30493	1523.16003	159.25078	-516.70813	1537.55725	337.47263	-322.81500	1467.78076	332.39886	-429.91385	1560.02051	203.78949	-160.95474	1171.64136	84.16788	-637.73804	1205.16272	466.62631	-92.47041	922.95526	257.68750	-549.99451	949.47803	613.01086	-251.36732	1026.71313	214.07314	-500.34500	1046.37817	436.18414	-479.51080	1051.21802	166.93579	-150.40723	603.24115	366.60327	-537.32062	558.31525	429.13684	-416.02640	202.06221	188.21663	-595.95026	61.75528	297.71201	
229	2.280	-417.05292	1727.34290	391.15659	-274.58176	1701.32007	436.48242							-268.81464	1522.69897	165.52773	-510.27930	1537.38049	347.35547	-316.04047	1467.16553	339.46539	-425.51437	1560.18433	213.07777	-158.73128	1171.18115	87.33661	-630.50201	1206.25366	480.50375	-87.91274	922.35529	259.54327	-538.87976	952.34528	627.21326	-247.37929	1027.92896	221.09232	-495.12393	1045.97473	444.31378	-475.47012	1051.28223	173.83049	-140.60744	607.24945	375.19009	-534.06744	557.94440	432.31793	-394.44891	189.82152	212.62915	-595.53894	62.02228	297.55865	
